<?xml version="1.0" encoding="utf-8"?>
<!-- Generator: Adobe Illustrator 17.0.0, SVG Export Plug-In . SVG Version: 6.00 Build 0)  -->
<!DOCTYPE svg PUBLIC "-//W3C//DTD SVG 1.1//EN" "http://www.w3.org/Graphics/SVG/1.1/DTD/svg11.dtd">
<svg version="1.1" id="Layer_1" xmlns="http://www.w3.org/2000/svg" xmlns:xlink="http://www.w3.org/1999/xlink" x="0px" y="0px"
	 width="524px" height="228px" viewBox="0 0 524 228" enable-background="new 0 0 524 228" xml:space="preserve">
<g>
	<path fill="#F93756" d="M182.808,67.136h-12.334l-70.24-39.125c-2.601-1.448-5.884-0.514-7.332,2.088
		c-1.448,2.599-0.514,5.882,2.086,7.33l53.333,29.707h-55.04c-38.557,0-69.814,30.257-69.814,68.814s31.257,68.814,69.814,68.814
		h89.527c38.558,0,70.148-30.257,70.148-68.814S221.365,67.136,182.808,67.136z"/>
</g>
<path d="M171.808,50.136h-12.334l-70.24-39.125c-2.601-1.448-5.884-0.514-7.332,2.088c-1.448,2.599-0.514,5.882,2.086,7.33
	l53.333,29.707h-55.04c-38.557,0-69.814,30.257-69.814,68.814s31.257,68.814,69.814,68.814h89.527
	c38.558,0,70.148-30.257,70.148-68.814S210.365,50.136,171.808,50.136z"/>
<g>
	<g>
		<g>
			<path fill="#FFFFFF" d="M65.495,82.919c1.889-0.01,3.523,1.01,4.205,2.715c0.746,1.865,0.398,3.567-1.003,5
				c-3.667,3.752-6.703,7.956-8.567,12.865c-6.028,15.875-3.41,30.232,7.865,42.955c1.14,1.286,2.246,2.522,2.054,4.366
				c-0.198,1.893-1.188,3.272-3.016,3.889c-1.807,0.61-3.427,0.197-4.784-1.172c-2.833-2.857-5.301-6.001-7.353-9.462
				c-4.764-8.037-7.136-16.752-6.9-26.077c0.329-12.972,5.047-24.171,14.103-33.51C63.039,83.52,64.11,82.894,65.495,82.919z"/>
		</g>
		<g>
			<path fill="#FFFFFF" d="M146.224,119.568c-0.262,12.759-4.89,24.317-14.253,33.914c-1.88,1.927-4.706,1.99-6.535,0.189
				c-1.786-1.758-1.783-4.568,0.068-6.461c5.782-5.913,9.601-12.898,10.978-21.047c2.25-13.314-1.296-24.986-10.433-34.96
				c-0.731-0.798-1.446-1.748-1.764-2.755c-0.619-1.963,0.36-3.975,2.124-4.975c1.787-1.012,3.94-0.709,5.465,0.815
				c2.921,2.919,5.435,6.158,7.527,9.72C143.927,101.711,146.122,110.054,146.224,119.568z"/>
		</g>
		<g>
			<path fill="#FFFFFF" d="M83.668,118.879c0.01-7.396,6.022-13.369,13.45-13.362c7.454,0.007,13.409,6.024,13.388,13.526
				c-0.021,7.378-6.053,13.326-13.5,13.311C89.619,132.339,83.658,126.316,83.668,118.879z M92.718,118.899
				c-0.01,2.471,1.865,4.389,4.307,4.406c2.471,0.017,4.409-1.857,4.431-4.284c0.023-2.532-1.859-4.455-4.361-4.455
				C94.62,114.565,92.728,116.439,92.718,118.899z"/>
		</g>
		<g>
			<path fill="#FFFFFF" d="M128.345,119.043c-0.117,8.489-3.125,15.796-9.025,21.904c-1.231,1.274-2.742,1.752-4.477,1.289
				c-1.78-0.475-2.863-1.674-3.26-3.448c-0.396-1.765,0.315-3.178,1.523-4.428c2.948-3.054,4.908-6.657,5.713-10.827
				c1.466-7.591-0.422-14.268-5.687-19.945c-1.183-1.275-1.933-2.659-1.562-4.422c0.365-1.734,1.42-2.927,3.131-3.454
				c1.814-0.56,3.369-0.023,4.662,1.294c2.86,2.914,5.083,6.256,6.633,10.039C127.57,110.888,128.382,114.88,128.345,119.043z"/>
		</g>
		<g>
			<path fill="#FFFFFF" d="M78.665,95.484c1.41,0.081,2.811,0.914,3.598,2.624c0.83,1.802,0.445,3.433-0.772,4.953
				c-1.259,1.57-2.649,3.076-3.656,4.801c-4.981,8.535-3.632,19.311,3.213,26.432c1.321,1.374,2.026,2.906,1.445,4.824
				c-0.534,1.761-1.751,2.819-3.534,3.168c-1.726,0.338-3.124-0.336-4.302-1.576c-4.8-5.05-7.768-10.991-8.565-17.933
				c-1.141-9.941,1.819-18.534,8.697-25.783C75.821,95.905,76.869,95.475,78.665,95.484z"/>
		</g>
	</g>
	<g>
		<path fill="#FFFFFF" d="M197.442,91.671c0,2.692-2.183,4.875-4.875,4.875h-21.25c-2.692,0-4.875-2.183-4.875-4.875l0,0
			c0-2.692,2.183-4.875,4.875-4.875h21.25C195.259,86.796,197.442,88.978,197.442,91.671L197.442,91.671z"/>
	</g>
	<g>
		<path fill="#FFFFFF" d="M211.442,115.671c0,2.692-2.183,4.875-4.875,4.875h-35.25c-2.692,0-4.875-2.183-4.875-4.875l0,0
			c0-2.692,2.183-4.875,4.875-4.875h35.25C209.259,110.796,211.442,112.978,211.442,115.671L211.442,115.671z"/>
	</g>
	<g>
		<path fill="#FFFFFF" d="M201.442,139.671c0,2.692-2.183,4.875-4.875,4.875h-25.25c-2.692,0-4.875-2.183-4.875-4.875l0,0
			c0-2.692,2.183-4.875,4.875-4.875h25.25C199.259,134.796,201.442,136.978,201.442,139.671L201.442,139.671z"/>
	</g>
</g>
<g enable-background="new    ">
	<path d="M359.284,58.222L346.1,103.984h-14.837l-6.748-26.813c-0.446-1.787-0.7-3.738-0.76-5.854h-0.268
		c-0.209,2.324-0.507,4.217-0.894,5.676l-7.24,26.992h-14.657L287.78,58.223h14.391l6.301,29.853c0.298,1.4,0.521,3.099,0.67,5.095
		h0.269c0.148-2.085,0.417-3.844,0.805-5.273l7.865-29.674h13.451l7.061,29.853c0.179,0.745,0.387,2.474,0.626,5.184h0.313
		c0.149-1.728,0.387-3.455,0.715-5.184l5.944-29.853h13.093V58.222z"/>
	<path d="M406.654,85.125h-29.853c0.477,6.644,4.663,9.965,12.558,9.965c5.035,0,9.459-1.19,13.273-3.574v10.188
		c-4.231,2.265-9.728,3.396-16.49,3.396c-7.39,0-13.124-2.048-17.206-6.145c-4.082-4.096-6.122-9.81-6.122-17.139
		c0-7.597,2.204-13.614,6.614-18.054c4.408-4.439,9.831-6.659,16.267-6.659c6.673,0,11.835,1.981,15.484,5.943
		c3.649,3.963,5.475,9.341,5.475,16.133L406.654,85.125L406.654,85.125z M393.561,76.455c0-6.554-2.652-9.832-7.955-9.832
		c-2.264,0-4.223,0.938-5.876,2.815s-2.659,4.217-3.017,7.017H393.561z"/>
	<path d="M429.356,98.665h-0.179v5.318h-14.122V36.235h14.122v28.868h0.179c3.485-5.332,8.446-7.999,14.881-7.999
		c5.899,0,10.442,2.026,13.631,6.078c3.188,4.052,4.781,9.593,4.781,16.624c0,7.627-1.862,13.75-5.586,18.367
		c-3.725,4.618-8.7,6.927-14.926,6.927C436.507,105.101,432.245,102.955,429.356,98.665z M428.954,79.359v4.692
		c0,2.95,0.849,5.393,2.547,7.329c1.698,1.938,3.873,2.905,6.524,2.905c3.218,0,5.713-1.244,7.485-3.731s2.659-6.011,2.659-10.569
		c0-3.783-0.812-6.74-2.436-8.871c-1.624-2.129-3.94-3.195-6.949-3.195c-2.83,0-5.177,1.059-7.038,3.174
		C429.885,73.208,428.954,75.964,428.954,79.359z"/>
</g>
<g enable-background="new    ">
	<path d="M322.862,144.958c-1.698-0.923-3.68-1.385-5.943-1.385c-3.069,0-5.468,1.125-7.195,3.374s-2.592,5.311-2.592,9.184v21.853
		h-14.121v-45.762h14.121v8.491h0.179c2.234-6.196,6.257-9.295,12.066-9.295c1.489,0,2.651,0.179,3.485,0.536L322.862,144.958
		L322.862,144.958z"/>
	<path d="M367.507,177.983h-13.362v-6.569h-0.179c-3.068,5.125-7.612,7.687-13.63,7.687c-4.439,0-7.933-1.258-10.479-3.776
		c-2.548-2.517-3.821-5.876-3.821-10.077c0-8.878,5.258-14.002,15.775-15.373l12.424-1.653c0-5.005-2.712-7.508-8.134-7.508
		c-5.452,0-10.636,1.624-15.552,4.871v-10.636c1.967-1.013,4.654-1.906,8.066-2.682c3.411-0.774,6.517-1.162,9.317-1.162
		c13.05,0,19.574,6.51,19.574,19.529v27.349H367.507z M354.234,159.393v-3.083l-8.313,1.072c-4.588,0.597-6.882,2.667-6.882,6.212
		c0,1.608,0.559,2.927,1.676,3.955c1.117,1.027,2.629,1.541,4.536,1.541c2.651,0,4.811-0.916,6.479-2.748
		C353.399,164.51,354.234,162.193,354.234,159.393z"/>
	<path d="M423.458,177.983h-14.122v-6.301h-0.179c-3.218,4.945-7.94,7.418-14.167,7.418c-5.72,0-10.322-2.018-13.809-6.056
		c-3.485-4.036-5.229-9.675-5.229-16.914c0-7.567,1.922-13.631,5.765-18.188c3.844-4.559,8.878-6.838,15.105-6.838
		c5.898,0,10.01,2.116,12.334,6.346h0.179v-27.215h14.122L423.458,177.983L423.458,177.983z M409.604,155.729v-3.441
		c0-2.979-0.864-5.452-2.592-7.418c-1.728-1.967-3.977-2.95-6.748-2.95c-3.128,0-5.571,1.229-7.329,3.688s-2.636,5.832-2.636,10.122
		c0,4.021,0.849,7.121,2.547,9.295c1.698,2.175,4.051,3.263,7.061,3.263c2.86,0,5.191-1.146,6.994-3.441
		C408.702,162.551,409.604,159.512,409.604,155.729z"/>
	<path d="M442.495,124.982c-2.384,0-4.335-0.707-5.854-2.123c-1.52-1.414-2.279-3.15-2.279-5.206c0-2.115,0.76-3.844,2.279-5.184
		c1.52-1.341,3.471-2.012,5.854-2.012c2.413,0,4.372,0.671,5.877,2.012c1.504,1.34,2.256,3.068,2.256,5.184
		c0,2.146-0.752,3.903-2.256,5.273C446.867,124.297,444.908,124.982,442.495,124.982z M449.467,177.983h-14.122v-45.762h14.122
		V177.983z"/>
	<path d="M483.162,179.101c-7.628,0-13.623-2.138-17.987-6.413c-4.365-4.274-6.547-10.077-6.547-17.406
		c0-7.567,2.264-13.488,6.792-17.764c4.528-4.274,10.651-6.413,18.367-6.413c7.598,0,13.556,2.139,17.876,6.413
		c4.319,4.275,6.479,9.929,6.479,16.959c0,7.598-2.228,13.602-6.681,18.01C497.008,176.896,490.907,179.101,483.162,179.101z
		 M483.52,141.919c-3.337,0-5.93,1.147-7.776,3.441c-1.848,2.295-2.771,5.542-2.771,9.742c0,8.789,3.545,13.184,10.636,13.184
		c6.763,0,10.145-4.514,10.145-13.541C493.753,146.195,490.342,141.919,483.52,141.919z"/>
</g>
</svg>
