<?xml version="1.0" encoding="utf-8"?>
<!-- Generator: Adobe Illustrator 17.0.0, SVG Export Plug-In . SVG Version: 6.00 Build 0)  -->
<!DOCTYPE svg PUBLIC "-//W3C//DTD SVG 1.1//EN" "http://www.w3.org/Graphics/SVG/1.1/DTD/svg11.dtd">
<svg version="1.1" id="Layer_1" xmlns="http://www.w3.org/2000/svg" xmlns:xlink="http://www.w3.org/1999/xlink" x="0px" y="0px"
	 width="41px" height="30.833px" viewBox="0 0 41 30.833" enable-background="new 0 0 41 30.833" xml:space="preserve">
<g>
	<path fill="#FFFFFF" d="M7.631,0.753C8.4,0.749,9.065,1.164,9.343,1.859c0.304,0.759,0.162,1.452-0.408,2.036
		C7.442,5.422,6.206,7.134,5.447,9.132c-2.454,6.464-1.388,12.309,3.202,17.489c0.464,0.524,0.915,1.027,0.836,1.778
		c-0.08,0.771-0.484,1.332-1.228,1.583c-0.736,0.248-1.395,0.08-1.948-0.477c-1.154-1.163-2.158-2.444-2.994-3.852
		c-1.94-3.272-2.906-6.821-2.809-10.618C0.64,9.754,2.562,5.195,6.249,1.392C6.631,0.998,7.067,0.743,7.631,0.753z"/>
	<path fill="#FFFFFF" d="M40.5,15.675c-0.107,5.195-1.991,9.901-5.803,13.808c-0.765,0.784-1.916,0.81-2.661,0.077
		c-0.727-0.716-0.726-1.86,0.028-2.631c2.354-2.407,3.909-5.251,4.47-8.569c0.916-5.421-0.528-10.173-4.248-14.234
		c-0.297-0.325-0.589-0.712-0.718-1.122c-0.252-0.799,0.147-1.618,0.865-2.025c0.727-0.412,1.604-0.289,2.225,0.332
		c1.189,1.188,2.213,2.507,3.065,3.957C39.565,8.405,40.459,11.802,40.5,15.675z"/>
	<path fill="#FFFFFF" d="M15.03,15.395c0.004-3.011,2.452-5.443,5.476-5.44c3.035,0.003,5.46,2.453,5.451,5.507
		c-0.009,3.004-2.464,5.426-5.497,5.42C17.453,20.875,15.026,18.423,15.03,15.395z M18.715,15.403
		c-0.004,1.006,0.759,1.787,1.754,1.794c1.006,0.007,1.795-0.756,1.804-1.744c0.009-1.031-0.757-1.814-1.775-1.814
		C19.49,13.638,18.719,14.401,18.715,15.403z"/>
	<path fill="#FFFFFF" d="M33.221,15.462c-0.048,3.456-1.272,6.431-3.675,8.918c-0.501,0.519-1.116,0.713-1.823,0.525
		c-0.725-0.193-1.166-0.682-1.327-1.404c-0.161-0.719,0.128-1.294,0.62-1.803c1.2-1.243,1.998-2.71,2.326-4.408
		c0.597-3.091-0.172-5.809-2.316-8.121c-0.482-0.519-0.787-1.082-0.636-1.8c0.148-0.706,0.578-1.192,1.275-1.406
		c0.739-0.228,1.372-0.01,1.898,0.527c1.164,1.187,2.069,2.547,2.701,4.087C32.905,12.141,33.236,13.766,33.221,15.462z"/>
	<path fill="#FFFFFF" d="M12.993,5.869c0.574,0.033,1.144,0.372,1.465,1.068c0.338,0.734,0.181,1.398-0.314,2.016
		c-0.513,0.639-1.079,1.252-1.488,1.955c-2.028,3.475-1.479,7.862,1.308,10.762c0.538,0.56,0.825,1.183,0.588,1.964
		c-0.217,0.717-0.713,1.148-1.439,1.29c-0.703,0.138-1.272-0.137-1.751-0.642c-1.954-2.056-3.163-4.475-3.487-7.302
		c-0.465-4.048,0.741-7.546,3.541-10.498C11.835,6.041,12.262,5.866,12.993,5.869z"/>
</g>
</svg>
