<?xml version="1.0" encoding="utf-8"?>
<!-- Generator: Adobe Illustrator 17.0.0, SVG Export Plug-In . SVG Version: 6.00 Build 0)  -->
<!DOCTYPE svg PUBLIC "-//W3C//DTD SVG 1.1//EN" "http://www.w3.org/Graphics/SVG/1.1/DTD/svg11.dtd">
<svg version="1.1" id="Layer_1" xmlns="http://www.w3.org/2000/svg" xmlns:xlink="http://www.w3.org/1999/xlink" x="0px" y="0px"
	 width="22.063px" height="21.979px" viewBox="0 0 22.063 21.979" enable-background="new 0 0 22.063 21.979" xml:space="preserve">
<g>
	<path fill="#FFFFFF" d="M11.031,0.173c1.489,0,2.895,0.279,4.215,0.838s2.471,1.329,3.453,2.311
		c0.981,0.982,1.752,2.133,2.311,3.453s0.838,2.726,0.838,4.215c0,1.49-0.279,2.895-0.838,4.215s-1.329,2.472-2.311,3.453
		c-0.982,0.982-2.133,1.752-3.453,2.311s-2.726,0.838-4.215,0.838c-1.49,0-2.895-0.279-4.215-0.838s-2.472-1.328-3.453-2.311
		c-0.982-0.981-1.752-2.133-2.311-3.453S0.215,12.48,0.215,10.99c0-1.489,0.279-2.895,0.838-4.215s1.328-2.471,2.311-3.453
		C4.345,2.34,5.496,1.57,6.816,1.011S9.541,0.173,11.031,0.173z M11.031,20.943c1.388,0,2.683-0.262,3.885-0.787
		c1.201-0.524,2.26-1.227,3.174-2.107c0.88-0.914,1.582-1.972,2.107-3.174c0.524-1.201,0.787-2.496,0.787-3.885
		c0-1.388-0.263-2.683-0.787-3.885c-0.525-1.201-1.228-2.26-2.107-3.174c-0.914-0.88-1.973-1.582-3.174-2.107
		c-1.202-0.524-2.497-0.787-3.885-0.787c-1.389,0-2.684,0.263-3.885,0.787c-1.202,0.525-2.26,1.228-3.174,2.107
		C3.092,4.845,2.39,5.904,1.865,7.105C1.34,8.307,1.078,9.602,1.078,10.99c0,1.389,0.262,2.684,0.787,3.885
		c0.524,1.202,1.227,2.26,2.107,3.174c0.914,0.881,1.972,1.583,3.174,2.107C8.348,20.681,9.643,20.943,11.031,20.943z
		 M11.945,16.169h0.914v0.863H9.355v-0.863h0.863V8.806H9.355V7.943h2.59v0.863V16.169z M11.082,7.029
		c-0.17,0-0.339-0.033-0.508-0.102c-0.17-0.067-0.305-0.152-0.406-0.254c-0.136-0.102-0.237-0.236-0.305-0.406
		C9.795,6.098,9.762,5.929,9.762,5.759c0-0.169,0.033-0.338,0.102-0.508c0.067-0.169,0.169-0.305,0.305-0.406
		c0.102-0.135,0.236-0.236,0.406-0.305c0.169-0.067,0.338-0.102,0.508-0.102c0.169,0,0.338,0.034,0.508,0.102
		c0.169,0.068,0.305,0.17,0.406,0.305c0.135,0.102,0.236,0.237,0.305,0.406c0.067,0.17,0.102,0.339,0.102,0.508
		c0,0.17-0.034,0.339-0.102,0.508c-0.068,0.17-0.17,0.305-0.305,0.406c-0.102,0.102-0.237,0.187-0.406,0.254
		C11.42,6.995,11.251,7.029,11.082,7.029z"/>
</g>
</svg>
