<?xml version="1.0" encoding="utf-8"?>
<!-- Generator: Adobe Illustrator 17.0.0, SVG Export Plug-In . SVG Version: 6.00 Build 0)  -->
<!DOCTYPE svg PUBLIC "-//W3C//DTD SVG 1.1//EN" "http://www.w3.org/Graphics/SVG/1.1/DTD/svg11.dtd">
<svg version="1.1" id="Layer_1" xmlns="http://www.w3.org/2000/svg" xmlns:xlink="http://www.w3.org/1999/xlink" x="0px" y="0px"
	 width="19.833px" height="28.333px" viewBox="0 0 19.833 28.333" enable-background="new 0 0 19.833 28.333" xml:space="preserve">
<path fill="#FFFFFF" d="M16.81,24.476c0,1.322-1.072,2.393-2.393,2.393l0,0c-1.322,0-2.393-1.072-2.393-2.393V3.857
	c0-1.322,1.072-2.393,2.393-2.393l0,0c1.322,0,2.393,1.072,2.393,2.393V24.476z"/>
<path fill="#FFFFFF" d="M7.81,24.476c0,1.322-1.072,2.393-2.393,2.393l0,0c-1.322,0-2.393-1.072-2.393-2.393V3.857
	c0-1.322,1.072-2.393,2.393-2.393l0,0c1.322,0,2.393,1.072,2.393,2.393C7.81,3.857,7.81,24.476,7.81,24.476z"/>
</svg>
