<?xml version="1.0" encoding="utf-8"?>
<!-- Generator: Adobe Illustrator 17.0.0, SVG Export Plug-In . SVG Version: 6.00 Build 0)  -->
<!DOCTYPE svg PUBLIC "-//W3C//DTD SVG 1.1//EN" "http://www.w3.org/Graphics/SVG/1.1/DTD/svg11.dtd">
<svg version="1.1" id="Layer_1" xmlns="http://www.w3.org/2000/svg" xmlns:xlink="http://www.w3.org/1999/xlink" x="0px" y="0px"
	 width="20.5px" height="19.75px" viewBox="0 0 20.5 19.75" enable-background="new 0 0 20.5 19.75" xml:space="preserve">
<path fill="#FFFFFF" d="M18.133,19.272c-0.379,0-0.748-0.156-1.004-0.424l-3.826-3.815c-1.305,0.904-2.867,1.383-4.451,1.383
	C4.514,16.417,1,12.903,1,8.564s3.514-7.853,7.853-7.853s7.853,3.514,7.853,7.853c0,1.584-0.479,3.146-1.383,4.451l3.826,3.826
	c0.256,0.256,0.413,0.625,0.413,1.004C19.561,18.625,18.914,19.272,18.133,19.272z M8.853,3.567c-2.755,0-4.997,2.242-4.997,4.997
	s2.242,4.997,4.997,4.997s4.997-2.242,4.997-4.997S11.607,3.567,8.853,3.567z"/>
</svg>
