<?xml version="1.0" encoding="utf-8"?>
<!-- Generator: Adobe Illustrator 17.0.0, SVG Export Plug-In . SVG Version: 6.00 Build 0)  -->
<!DOCTYPE svg PUBLIC "-//W3C//DTD SVG 1.1//EN" "http://www.w3.org/Graphics/SVG/1.1/DTD/svg11.dtd">
<svg version="1.1" id="Layer_1" xmlns="http://www.w3.org/2000/svg" xmlns:xlink="http://www.w3.org/1999/xlink" x="0px" y="0px"
	 width="15.75px" height="13.667px" viewBox="0 0 15.75 13.667" enable-background="new 0 0 15.75 13.667" xml:space="preserve">
<path fill="#EF4357" d="M13.086,8.005l-4.867,4.688c-0.094,0.093-0.219,0.14-0.344,0.14s-0.25-0.047-0.344-0.141L2.656,7.99
	c-0.063-0.055-1.781-1.625-1.781-3.5c0-2.289,1.398-3.656,3.734-3.656c1.367,0,2.648,1.078,3.266,1.688
	c0.617-0.609,1.898-1.688,3.266-1.688c2.336,0,3.734,1.367,3.734,3.656C14.875,6.365,13.156,7.935,13.086,8.005z M11.141,1.833
	c-1.164,0-2.477,1.258-2.883,1.742c-0.188,0.227-0.578,0.227-0.766,0C7.086,3.091,5.773,1.833,4.609,1.833
	c-1.25,0-2.734,0.461-2.734,2.656c0,1.43,1.445,2.758,1.461,2.773l4.539,4.375l4.531-4.367c0.023-0.023,1.469-1.352,1.469-2.781
	C13.875,2.294,12.391,1.833,11.141,1.833z"/>
</svg>
