<?xml version="1.0" encoding="utf-8"?>
<!-- Generator: Adobe Illustrator 17.0.0, SVG Export Plug-In . SVG Version: 6.00 Build 0)  -->
<!DOCTYPE svg PUBLIC "-//W3C//DTD SVG 1.1//EN" "http://www.w3.org/Graphics/SVG/1.1/DTD/svg11.dtd">
<svg version="1.1" id="Layer_1" xmlns="http://www.w3.org/2000/svg" xmlns:xlink="http://www.w3.org/1999/xlink" x="0px" y="0px"
	 width="24.75px" height="21.063px" viewBox="0 0 24.75 21.063" enable-background="new 0 0 24.75 21.063" xml:space="preserve">
<g>
	<path d="M11.446,18.426c0,0.508-0.421,0.928-0.929,0.928c-0.247,0-0.479-0.102-0.653-0.275l-4.832-4.832H1.23
		c-0.508,0-0.929-0.421-0.929-0.929V7.745c0-0.508,0.421-0.929,0.929-0.929h3.802l4.832-4.832c0.175-0.174,0.406-0.276,0.653-0.276
		c0.508,0,0.929,0.421,0.929,0.929V18.426z M14.77,13.941c-0.116,0.059-0.247,0.072-0.363,0.072c-0.508,0-0.929-0.406-0.929-0.929
		c0-1.103,1.684-0.798,1.684-2.554s-1.684-1.451-1.684-2.554c0-0.522,0.421-0.929,0.929-0.929c0.116,0,0.247,0.014,0.363,0.072
		c1.364,0.537,2.249,1.959,2.249,3.41S16.134,13.391,14.77,13.941z M16.235,17.366c-0.116,0.044-0.247,0.072-0.363,0.072
		c-0.522,0-0.943-0.421-0.943-0.929c0-0.406,0.232-0.682,0.566-0.855c0.392-0.203,0.754-0.378,1.103-0.639
		c1.437-1.045,2.278-2.714,2.278-4.484s-0.842-3.439-2.278-4.484c-0.349-0.261-0.711-0.436-1.103-0.639
		c-0.334-0.174-0.566-0.45-0.566-0.856c0-0.508,0.421-0.929,0.929-0.929c0.131,0,0.262,0.029,0.378,0.072
		c2.728,1.146,4.498,3.889,4.498,6.835C20.733,13.477,18.963,16.22,16.235,17.366z M17.7,20.776
		c-0.115,0.043-0.246,0.072-0.377,0.072c-0.508,0-0.929-0.421-0.929-0.929c0-0.421,0.218-0.652,0.566-0.855
		c0.203-0.117,0.435-0.189,0.652-0.305c0.406-0.219,0.813-0.465,1.19-0.74c2.38-1.756,3.787-4.527,3.787-7.488
		c0-2.96-1.407-5.732-3.787-7.488c-0.378-0.276-0.784-0.522-1.19-0.74c-0.218-0.116-0.449-0.188-0.652-0.305
		c-0.349-0.203-0.566-0.435-0.566-0.856c0-0.508,0.421-0.929,0.929-0.929c0.131,0,0.262,0.029,0.377,0.073
		c4.093,1.756,6.748,5.79,6.748,10.245S21.793,19.02,17.7,20.776z"/>
</g>
</svg>
