<?xml version="1.0" encoding="utf-8"?>
<!-- Generator: Adobe Illustrator 17.0.0, SVG Export Plug-In . SVG Version: 6.00 Build 0)  -->
<!DOCTYPE svg PUBLIC "-//W3C//DTD SVG 1.1//EN" "http://www.w3.org/Graphics/SVG/1.1/DTD/svg11.dtd">
<svg version="1.1" id="Layer_1" xmlns="http://www.w3.org/2000/svg" xmlns:xlink="http://www.w3.org/1999/xlink" x="0px" y="0px"
	 width="15.75px" height="13.667px" viewBox="0 0 15.75 13.667" enable-background="new 0 0 15.75 13.667" xml:space="preserve">
<g>
	<path fill="#E8BD13" d="M14.172,5.814L11.336,8.58l0.672,3.906c0.008,0.055,0.008,0.102,0.008,0.156
		c0,0.203-0.094,0.391-0.32,0.391c-0.109,0-0.219-0.039-0.313-0.094l-3.508-1.844l-3.508,1.844
		c-0.102,0.055-0.203,0.094-0.313,0.094c-0.227,0-0.328-0.188-0.328-0.391c0-0.055,0.008-0.102,0.016-0.156L4.414,8.58L1.57,5.814
		C1.477,5.712,1.375,5.579,1.375,5.439c0-0.234,0.242-0.328,0.438-0.359l3.922-0.57l1.758-3.555c0.07-0.148,0.203-0.32,0.383-0.32
		c0.18,0,0.313,0.172,0.383,0.32l1.758,3.555l3.922,0.57c0.188,0.031,0.438,0.125,0.438,0.359
		C14.375,5.579,14.273,5.712,14.172,5.814z"/>
</g>
</svg>
