<?xml version="1.0" encoding="utf-8"?>
<!-- Generator: Adobe Illustrator 17.0.0, SVG Export Plug-In . SVG Version: 6.00 Build 0)  -->
<!DOCTYPE svg PUBLIC "-//W3C//DTD SVG 1.1//EN" "http://www.w3.org/Graphics/SVG/1.1/DTD/svg11.dtd">
<svg version="1.1" id="Layer_1" xmlns="http://www.w3.org/2000/svg" xmlns:xlink="http://www.w3.org/1999/xlink" x="0px" y="0px"
	 width="245.5px" height="245.5px" viewBox="0 0 245.5 245.5" enable-background="new 0 0 245.5 245.5" xml:space="preserve">
<g>
	<g>
		<g>
			<defs>
				<path id="SVGID_1_" d="M90.778,21.394l140.086,78.031c2.601,1.448,3.534,4.731,2.086,7.33c-1.448,2.601-4.731,3.535-7.332,2.086
					L85.532,30.812c-2.6-1.448-3.534-4.731-2.086-7.33C84.894,20.88,88.177,19.946,90.778,21.394z"/>
			</defs>
			<clipPath id="SVGID_2_">
				<use xlink:href="#SVGID_1_"  overflow="visible"/>
			</clipPath>
		</g>
		<g>
			<defs>
				<path id="SVGID_3_" d="M90.778,21.394l140.086,78.031c2.601,1.448,3.534,4.731,2.086,7.33c-1.448,2.601-4.731,3.535-7.332,2.086
					L85.532,30.812c-2.6-1.448-3.534-4.731-2.086-7.33C84.894,20.88,88.177,19.946,90.778,21.394z"/>
			</defs>
			<clipPath id="SVGID_4_">
				<use xlink:href="#SVGID_3_"  overflow="visible"/>
			</clipPath>
		</g>
		<g>
			<defs>
				<path id="SVGID_5_" d="M90.778,21.394l140.086,78.031c2.601,1.448,3.534,4.731,2.086,7.33c-1.448,2.601-4.731,3.535-7.332,2.086
					L85.532,30.812c-2.6-1.448-3.534-4.731-2.086-7.33C84.894,20.88,88.177,19.946,90.778,21.394z"/>
			</defs>
			<clipPath id="SVGID_6_">
				<use xlink:href="#SVGID_5_"  overflow="visible"/>
			</clipPath>
		</g>
		<g>
			<defs>
				<path id="SVGID_7_" d="M90.778,21.394l140.086,78.031c2.601,1.448,3.534,4.731,2.086,7.33c-1.448,2.601-4.731,3.535-7.332,2.086
					L85.532,30.812c-2.6-1.448-3.534-4.731-2.086-7.33C84.894,20.88,88.177,19.946,90.778,21.394z"/>
			</defs>
			<clipPath id="SVGID_8_">
				<use xlink:href="#SVGID_7_"  overflow="visible"/>
			</clipPath>
		</g>
		<path fill-rule="evenodd" clip-rule="evenodd" fill="#F93756" d="M83.825,60.52h89.527c38.557,0,70.148,30.257,70.148,68.814
			c0,38.557-31.59,68.814-70.148,68.814H83.825c-38.557,0-69.814-30.257-69.814-68.814C14.011,90.777,45.268,60.52,83.825,60.52z"/>
		<path display="none" fill-rule="evenodd" clip-rule="evenodd" fill="#F93756" d="M83.824,61.348h89.527
			c38.556,0,70.148,30.677,70.148,68.517c0,37.842-31.592,68.519-70.148,68.519H83.824c-38.556,0-69.814-30.677-69.814-68.519
			C14.011,92.025,45.268,61.348,83.824,61.348z"/>
		<path fill="#F93756" d="M67.039,93.302c1.889-0.01,3.523,1.01,4.205,2.715c0.746,1.865,0.398,3.567-1.003,5
			c-3.667,3.752-6.703,7.956-8.567,12.865c-6.028,15.875-3.41,30.232,7.865,42.955c1.14,1.286,2.246,2.522,2.054,4.366
			c-0.198,1.893-1.188,3.272-3.016,3.889c-1.807,0.61-3.427,0.197-4.784-1.172c-2.833-2.857-5.301-6.001-7.353-9.462
			c-4.764-8.037-7.136-16.752-6.9-26.077c0.329-12.972,5.047-24.171,14.103-33.51C64.583,93.904,65.654,93.277,67.039,93.302z"/>
		<path fill="#F93756" d="M147.768,129.951c-0.262,12.759-4.89,24.317-14.253,33.914c-1.88,1.927-4.706,1.99-6.535,0.189
			c-1.786-1.758-1.783-4.568,0.068-6.461c5.782-5.913,9.601-12.898,10.978-21.047c2.25-13.314-1.296-24.986-10.433-34.96
			c-0.731-0.798-1.446-1.748-1.764-2.755c-0.619-1.963,0.36-3.975,2.124-4.975c1.787-1.012,3.94-0.709,5.465,0.815
			c2.921,2.919,5.435,6.158,7.527,9.72C145.471,112.095,147.666,120.438,147.768,129.951z"/>
		<path fill="#F93756" d="M85.212,129.262c0.01-7.396,6.022-13.369,13.45-13.362c7.454,0.007,13.409,6.024,13.388,13.526
			c-0.021,7.378-6.053,13.326-13.5,13.311C91.163,142.723,85.202,136.7,85.212,129.262z M94.262,129.283
			c-0.01,2.471,1.865,4.389,4.307,4.406c2.471,0.017,4.409-1.857,4.431-4.284c0.023-2.532-1.859-4.455-4.361-4.455
			C96.164,124.949,94.272,126.823,94.262,129.283z"/>
		<path fill="#F93756" d="M129.889,129.427c-0.117,8.489-3.125,15.796-9.025,21.904c-1.231,1.274-2.742,1.752-4.477,1.289
			c-1.78-0.475-2.863-1.674-3.26-3.448c-0.396-1.765,0.315-3.178,1.523-4.428c2.948-3.054,4.908-6.657,5.713-10.827
			c1.466-7.591-0.422-14.268-5.687-19.945c-1.183-1.275-1.933-2.659-1.562-4.422c0.365-1.734,1.42-2.927,3.131-3.454
			c1.814-0.56,3.369-0.023,4.662,1.294c2.86,2.914,5.083,6.256,6.633,10.039C129.114,121.271,129.926,125.263,129.889,129.427z"/>
		<path fill="#F93756" d="M80.209,105.867c1.41,0.081,2.811,0.914,3.598,2.624c0.83,1.802,0.445,3.433-0.772,4.953
			c-1.259,1.57-2.649,3.076-3.656,4.801c-4.981,8.535-3.632,19.311,3.213,26.432c1.321,1.374,2.026,2.906,1.445,4.824
			c-0.534,1.761-1.751,2.819-3.534,3.168c-1.726,0.338-3.124-0.336-4.302-1.576c-4.8-5.05-7.768-10.991-8.565-17.933
			c-1.141-9.941,1.819-18.534,8.697-25.783C77.365,106.289,78.413,105.859,80.209,105.867z"/>
		<path fill="#F93756" d="M198.986,102.054c0,2.692-2.183,4.875-4.875,4.875h-21.25c-2.692,0-4.875-2.183-4.875-4.875l0,0
			c0-2.692,2.183-4.875,4.875-4.875h21.25C196.803,97.179,198.986,99.362,198.986,102.054L198.986,102.054z"/>
		<path fill="#F93756" d="M212.986,126.054c0,2.692-2.183,4.875-4.875,4.875h-35.25c-2.692,0-4.875-2.183-4.875-4.875l0,0
			c0-2.692,2.183-4.875,4.875-4.875h35.25C210.803,121.179,212.986,123.362,212.986,126.054L212.986,126.054z"/>
		<path fill="#F93756" d="M202.986,150.054c0,2.692-2.183,4.875-4.875,4.875h-25.25c-2.692,0-4.875-2.183-4.875-4.875l0,0
			c0-2.692,2.183-4.875,4.875-4.875h25.25C200.803,145.179,202.986,147.362,202.986,150.054L202.986,150.054z"/>
	</g>
	<g>
		<g>
			<g>
				<g>
					<defs>
						<path id="SVGID_9_" d="M79.778,4.394l140.086,78.031c2.601,1.448,3.534,4.731,2.086,7.33
							c-1.448,2.601-4.731,3.535-7.332,2.086L74.532,13.812c-2.6-1.448-3.534-4.731-2.086-7.33
							C73.894,3.88,77.177,2.946,79.778,4.394z"/>
					</defs>
					<clipPath id="SVGID_10_">
						<use xlink:href="#SVGID_9_"  overflow="visible"/>
					</clipPath>
				</g>
			</g>
			<g>
				<g>
					<defs>
						<path id="SVGID_11_" d="M79.778,4.394l140.086,78.031c2.601,1.448,3.534,4.731,2.086,7.33
							c-1.448,2.601-4.731,3.535-7.332,2.086L74.532,13.812c-2.6-1.448-3.534-4.731-2.086-7.33
							C73.894,3.88,77.177,2.946,79.778,4.394z"/>
					</defs>
					<clipPath id="SVGID_12_">
						<use xlink:href="#SVGID_11_"  overflow="visible"/>
					</clipPath>
				</g>
			</g>
			<g>
				<g>
					<defs>
						<path id="SVGID_13_" d="M79.778,4.394l140.086,78.031c2.601,1.448,3.534,4.731,2.086,7.33
							c-1.448,2.601-4.731,3.535-7.332,2.086L74.532,13.812c-2.6-1.448-3.534-4.731-2.086-7.33
							C73.894,3.88,77.177,2.946,79.778,4.394z"/>
					</defs>
					<clipPath id="SVGID_14_">
						<use xlink:href="#SVGID_13_"  overflow="visible"/>
					</clipPath>
				</g>
			</g>
		</g>
		<g>
			<g>
				<g>
					<g>
						<defs>
							<path id="SVGID_15_" d="M79.778,4.394l140.086,78.031c2.601,1.448,3.534,4.731,2.086,7.33
								c-1.448,2.601-4.731,3.535-7.332,2.086L74.532,13.812c-2.6-1.448-3.534-4.731-2.086-7.33
								C73.894,3.88,77.177,2.946,79.778,4.394z"/>
						</defs>
						<clipPath id="SVGID_16_">
							<use xlink:href="#SVGID_15_"  overflow="visible"/>
						</clipPath>
					</g>
				</g>
				<g>
					<path fill-rule="evenodd" clip-rule="evenodd" d="M72.825,43.52h89.527c38.557,0,70.148,30.257,70.148,68.814
						c0,38.557-31.59,68.814-70.148,68.814H72.825c-38.557,0-69.814-30.257-69.814-68.814C3.011,73.777,34.268,43.52,72.825,43.52z"
						/>
					<path display="none" fill-rule="evenodd" clip-rule="evenodd" d="M72.824,44.348h89.527c38.556,0,70.148,30.677,70.148,68.517
						c0,37.842-31.592,68.519-70.148,68.519H72.824c-38.556,0-69.814-30.677-69.814-68.519
						C3.011,75.025,34.268,44.348,72.824,44.348z"/>
					<g>
						<g>
							<defs>
								<path id="SVGID_17_" d="M79.778,4.394l140.086,78.031c2.601,1.448,3.534,4.731,2.086,7.33
									c-1.448,2.601-4.731,3.535-7.332,2.086L74.532,13.812c-2.6-1.448-3.534-4.731-2.086-7.33
									C73.894,3.88,77.177,2.946,79.778,4.394z"/>
							</defs>
							<use xlink:href="#SVGID_17_"  overflow="visible" fill-rule="evenodd" clip-rule="evenodd"/>
							<clipPath id="SVGID_18_">
								<use xlink:href="#SVGID_17_"  overflow="visible"/>
							</clipPath>
						</g>
					</g>
				</g>
				<g>
					<g>
						<defs>
							<path id="SVGID_19_" d="M79.778,4.394l140.086,78.031c2.601,1.448,3.534,4.731,2.086,7.33
								c-1.448,2.601-4.731,3.535-7.332,2.086L74.532,13.812c-2.6-1.448-3.534-4.731-2.086-7.33
								C73.894,3.88,77.177,2.946,79.778,4.394z"/>
						</defs>
						<clipPath id="SVGID_20_">
							<use xlink:href="#SVGID_19_"  overflow="visible"/>
						</clipPath>
					</g>
				</g>
			</g>
			<g>
				<g>
					<path fill="#FFFFFF" d="M56.039,76.302c1.889-0.01,3.523,1.01,4.205,2.715c0.746,1.865,0.398,3.567-1.003,5
						c-3.667,3.752-6.703,7.956-8.567,12.865c-6.028,15.875-3.41,30.232,7.865,42.955c1.14,1.286,2.246,2.522,2.054,4.366
						c-0.198,1.893-1.188,3.272-3.016,3.889c-1.807,0.61-3.427,0.197-4.784-1.172c-2.833-2.857-5.301-6.001-7.353-9.462
						c-4.764-8.037-7.136-16.752-6.9-26.077c0.329-12.972,5.047-24.171,14.103-33.51C53.583,76.904,54.654,76.277,56.039,76.302z"/>
					<path fill="#FFFFFF" d="M136.768,112.951c-0.262,12.759-4.89,24.317-14.253,33.914c-1.88,1.927-4.706,1.99-6.535,0.189
						c-1.786-1.758-1.783-4.568,0.068-6.461c5.782-5.913,9.601-12.898,10.978-21.047c2.25-13.314-1.296-24.986-10.433-34.96
						c-0.731-0.798-1.446-1.748-1.764-2.755c-0.619-1.963,0.36-3.975,2.124-4.975c1.787-1.012,3.94-0.709,5.465,0.815
						c2.921,2.919,5.435,6.158,7.527,9.72C134.471,95.095,136.666,103.438,136.768,112.951z"/>
					<path fill="#FFFFFF" d="M74.212,112.262c0.01-7.396,6.022-13.369,13.45-13.362c7.454,0.007,13.409,6.024,13.388,13.526
						c-0.021,7.378-6.053,13.326-13.5,13.311C80.163,125.723,74.202,119.7,74.212,112.262z M83.262,112.283
						c-0.01,2.471,1.865,4.389,4.307,4.406c2.471,0.017,4.409-1.857,4.431-4.284c0.023-2.532-1.859-4.455-4.361-4.455
						C85.164,107.949,83.272,109.823,83.262,112.283z"/>
					<path fill="#FFFFFF" d="M118.889,112.427c-0.117,8.489-3.125,15.796-9.025,21.904c-1.231,1.274-2.742,1.752-4.477,1.289
						c-1.78-0.475-2.863-1.674-3.26-3.448c-0.396-1.765,0.315-3.178,1.523-4.428c2.948-3.054,4.908-6.657,5.713-10.827
						c1.466-7.591-0.422-14.268-5.687-19.945c-1.183-1.275-1.933-2.659-1.562-4.422c0.365-1.734,1.42-2.927,3.131-3.454
						c1.814-0.56,3.369-0.023,4.662,1.294c2.86,2.914,5.083,6.256,6.633,10.039C118.114,104.271,118.926,108.263,118.889,112.427z"
						/>
					<path fill="#FFFFFF" d="M69.209,88.867c1.41,0.081,2.811,0.914,3.598,2.624c0.83,1.802,0.445,3.433-0.772,4.953
						c-1.259,1.57-2.649,3.076-3.656,4.801c-4.981,8.535-3.632,19.311,3.213,26.432c1.321,1.374,2.026,2.906,1.445,4.824
						c-0.534,1.761-1.751,2.819-3.534,3.168c-1.726,0.338-3.124-0.336-4.302-1.576c-4.8-5.05-7.768-10.991-8.565-17.933
						c-1.141-9.941,1.819-18.534,8.697-25.783C66.365,89.289,67.413,88.859,69.209,88.867z"/>
				</g>
				<path fill="#FFFFFF" d="M187.986,85.054c0,2.692-2.183,4.875-4.875,4.875h-21.25c-2.692,0-4.875-2.183-4.875-4.875l0,0
					c0-2.692,2.183-4.875,4.875-4.875h21.25C185.803,80.179,187.986,82.362,187.986,85.054L187.986,85.054z"/>
				<path fill="#FFFFFF" d="M201.986,109.054c0,2.692-2.183,4.875-4.875,4.875h-35.25c-2.692,0-4.875-2.183-4.875-4.875l0,0
					c0-2.692,2.183-4.875,4.875-4.875h35.25C199.803,104.179,201.986,106.362,201.986,109.054L201.986,109.054z"/>
				<path fill="#FFFFFF" d="M191.986,133.054c0,2.692-2.183,4.875-4.875,4.875h-25.25c-2.692,0-4.875-2.183-4.875-4.875l0,0
					c0-2.692,2.183-4.875,4.875-4.875h25.25C189.803,128.179,191.986,130.362,191.986,133.054L191.986,133.054z"/>
			</g>
		</g>
		<g>
			<g>
				<g>
					<defs>
						<path id="SVGID_21_" d="M79.778,4.394l140.086,78.031c2.601,1.448,3.534,4.731,2.086,7.33
							c-1.448,2.601-4.731,3.535-7.332,2.086L74.532,13.812c-2.6-1.448-3.534-4.731-2.086-7.33
							C73.894,3.88,77.177,2.946,79.778,4.394z"/>
					</defs>
					<clipPath id="SVGID_22_">
						<use xlink:href="#SVGID_21_"  overflow="visible"/>
					</clipPath>
				</g>
			</g>
			<g>
				<g>
					<defs>
						<path id="SVGID_23_" d="M79.778,4.394l140.086,78.031c2.601,1.448,3.534,4.731,2.086,7.33
							c-1.448,2.601-4.731,3.535-7.332,2.086L74.532,13.812c-2.6-1.448-3.534-4.731-2.086-7.33
							C73.894,3.88,77.177,2.946,79.778,4.394z"/>
					</defs>
					<clipPath id="SVGID_24_">
						<use xlink:href="#SVGID_23_"  overflow="visible"/>
					</clipPath>
				</g>
			</g>
			<g>
				<g>
					<defs>
						<path id="SVGID_25_" d="M79.778,4.394l140.086,78.031c2.601,1.448,3.534,4.731,2.086,7.33
							c-1.448,2.601-4.731,3.535-7.332,2.086L74.532,13.812c-2.6-1.448-3.534-4.731-2.086-7.33
							C73.894,3.88,77.177,2.946,79.778,4.394z"/>
					</defs>
					<clipPath id="SVGID_26_">
						<use xlink:href="#SVGID_25_"  overflow="visible"/>
					</clipPath>
				</g>
			</g>
		</g>
	</g>
</g>
</svg>
