<?xml version="1.0" standalone="no"?>
<!DOCTYPE svg PUBLIC "-//W3C//DTD SVG 20010904//EN"
 "http://www.w3.org/TR/2001/REC-SVG-20010904/DTD/svg10.dtd">
<svg version="1.0" xmlns="http://www.w3.org/2000/svg"
 width="700.000000pt" height="700.000000pt" viewBox="0 0 700.000000 700.000000"
 preserveAspectRatio="xMidYMid meet">
<metadata>
Created by potrace 1.11, written by Peter Selinger 2001-2013
</metadata>
<g transform="translate(0.000000,700.000000) scale(0.100000,-0.100000)"
fill="#000000" stroke="none">
<path d="M2130 6878 c-86 -44 -112 -149 -57 -229 17 -23 203 -131 788 -457
l767 -427 -897 -5 c-779 -5 -908 -8 -986 -23 -453 -84 -820 -276 -1116 -584
-338 -353 -517 -772 -545 -1273 -25 -447 135 -938 422 -1300 33 -41 84 -120
113 -175 190 -356 468 -634 821 -822 205 -109 448 -187 688 -218 172 -23 2905
-22 3079 0 652 85 1216 474 1518 1047 325 618 287 1379 -98 1966 -35 53 -86
124 -113 157 -28 33 -70 98 -93 144 -295 580 -867 980 -1524 1066 -78 10 -201
15 -365 15 l-247 0 -980 546 c-539 301 -1002 557 -1030 570 -62 30 -89 30
-145 2z m-470 -2073 c37 -19 60 -63 60 -114 0 -34 -8 -50 -52 -102 -146 -172
-193 -251 -248 -418 -133 -406 -66 -775 200 -1103 91 -111 100 -127 100 -175
0 -81 -88 -141 -162 -110 -66 28 -233 238 -308 386 -223 444 -188 994 88 1404
65 96 167 213 201 232 34 19 85 19 121 0z m1801 -3 c37 -25 142 -146 197 -227
206 -306 282 -699 206 -1069 -46 -227 -170 -467 -334 -648 -75 -82 -119 -100
-177 -71 -74 36 -101 122 -58 177 11 14 51 62 88 108 117 143 184 275 229 455
19 76 23 115 23 278 0 168 -3 200 -23 275 -48 176 -132 333 -257 479 -78 91
-94 131 -72 184 29 68 120 98 178 59z m1826 -112 c45 -27 66 -64 66 -115 0
-51 -21 -88 -66 -115 -30 -19 -53 -20 -364 -20 -182 0 -343 4 -356 9 -35 13
-75 59 -83 94 -13 63 23 134 81 158 11 4 171 8 355 8 315 1 337 0 367 -19z
m-3259 -246 c31 -22 52 -66 52 -112 0 -33 -9 -52 -53 -108 -79 -101 -104 -145
-133 -230 -67 -200 -25 -431 108 -594 67 -82 78 -102 78 -147 0 -79 -80 -138
-155 -113 -46 15 -138 117 -194 214 -146 256 -158 570 -31 829 45 93 155 238
197 261 37 20 103 20 131 0z m1074 -2 c79 -52 189 -221 236 -364 76 -231 57
-473 -54 -689 -54 -104 -145 -217 -196 -242 -99 -49 -209 56 -163 155 8 18 38
60 66 93 93 110 140 245 142 400 0 50 -5 115 -12 145 -19 82 -84 207 -140 273
-64 73 -79 119 -58 170 29 68 120 98 179 59z m-468 -293 c132 -50 219 -161
241 -310 22 -146 -70 -311 -213 -381 -61 -30 -74 -33 -162 -33 -83 0 -103 3
-155 28 -211 98 -287 355 -163 549 95 150 284 211 452 147z m3053 -142 c84
-45 85 -182 3 -231 -25 -14 -86 -16 -572 -16 -527 0 -544 1 -576 20 -35 21
-62 72 -62 115 0 55 46 112 102 125 18 5 267 8 553 7 476 -2 523 -3 552 -20z
m-288 -685 c39 -19 71 -72 71 -117 0 -40 -32 -90 -72 -115 -31 -19 -51 -20
-418 -20 -429 0 -431 0 -477 69 -42 62 -19 147 48 183 31 17 65 18 424 18 352
0 393 -2 424 -18z"/>
<path d="M2469 3920 c-46 -14 -66 -29 -83 -64 -31 -65 -12 -130 47 -166 91
-56 212 23 192 126 -13 73 -89 124 -156 104z"/>
</g>
</svg>
